<svg width="26" height="26" viewBox="0 0 26 26" fill="none" xmlns="http://www.w3.org/2000/svg">
<g clip-path="url(#clip0_2_150)">
<path d="M16.8717 4.11975C17.6998 3.1188 18.2818 1.75934 18.2526 0.374632C18.2477 0.142105 18.0356 -0.0305513 17.8056 0.00453855C16.5906 0.190195 15.2324 0.951152 14.3916 1.93544C13.6168 2.83138 12.9291 4.2237 12.9808 5.60337C12.9885 5.81127 13.1642 5.97697 13.3721 5.97108C14.7132 5.93315 16.0372 5.13009 16.8717 4.11975Z" fill="#D6D6D8"/>
<path d="M14.0272 5.60336C13.9471 3.4644 15.5608 0.966063 18.1802 0.160622C18.098 0.0475829 17.9559 -0.0183819 17.8058 0.00452044C16.5907 0.190177 15.2325 0.951134 14.3917 1.93543C13.6169 2.83136 12.9291 4.22373 12.9809 5.60336C12.9887 5.81125 13.1643 5.97695 13.3723 5.97106C13.6323 5.9637 13.8917 5.92729 14.1469 5.86645C14.0766 5.79983 14.0311 5.70685 14.0272 5.60336Z" fill="#C2C2C4"/>
<path d="M23.3444 18.9264C22.5024 18.5025 20.179 17.0398 20.1503 13.7958C20.1257 11.1403 21.8878 9.59615 22.6374 9.057C22.8153 8.92898 22.8544 8.67848 22.7191 8.50598C22.0963 7.71201 21.368 7.20273 20.6685 6.8726C20.6689 6.87255 20.6694 6.87244 20.6698 6.87239C20.5792 6.82958 20.4241 6.76164 20.2999 6.71274C16.7798 5.32707 14.5613 7.451 13.2175 7.451C12.1886 7.451 10.6009 6.28846 8.91877 6.3202C6.70831 6.35229 4.67229 7.60608 3.5324 9.58452C1.78359 12.6199 2.36032 16.7694 3.72283 20.0032C3.72283 20.0033 3.72278 20.0033 3.72278 20.0033C3.75766 20.086 3.81322 20.2148 3.85953 20.3187C3.85958 20.3186 3.85958 20.3186 3.85963 20.3185C4.25436 21.2049 4.70626 22.015 5.18233 22.7035C6.2755 24.2836 7.57961 26.0636 9.29313 25.9982C10.9423 25.9328 11.5658 24.9319 13.5589 24.9319C15.5507 24.9319 16.1125 25.9982 17.8564 25.9664C19.6315 25.9328 20.7556 24.354 21.8413 22.7664C22.7969 21.3715 23.324 20.0099 23.5353 19.3969C23.5983 19.2142 23.5171 19.0133 23.3444 18.9264Z" fill="#D6D6D8"/>
<path d="M6.22863 22.7038C5.75255 22.0152 5.30065 21.2051 4.90593 20.3187C4.90588 20.3187 4.90588 20.3188 4.90583 20.3189C4.85957 20.215 4.80447 20.0874 4.76907 20.0035C4.76907 20.0035 4.76912 20.0035 4.76912 20.0034C3.41499 16.7896 2.82364 12.6309 4.57869 9.58474C5.63144 7.75763 7.4486 6.5494 9.46151 6.34988C9.28205 6.32829 9.10102 6.31702 8.91876 6.32042C6.70831 6.35252 4.67228 7.60631 3.5324 9.58474C1.78359 12.6201 2.36032 16.7696 3.72283 20.0034C3.72283 20.0035 3.72278 20.0035 3.72278 20.0035C3.75766 20.0863 3.81322 20.215 3.85953 20.3189C3.85958 20.3188 3.85963 20.3188 3.85963 20.3187C4.25435 21.2051 4.70626 22.0152 5.18228 22.7038C6.27545 24.2838 7.57956 26.0638 9.29307 25.9984C9.46167 25.9917 9.61909 25.9749 9.76879 25.9507C8.33127 25.6591 7.19703 24.1035 6.22863 22.7038Z" fill="#C2C2C4"/>
</g>
<defs>
<clipPath id="clip0_2_150">
<rect width="26" height="26" fill="white"/>
</clipPath>
</defs>
</svg>
