<svg width="24" height="26" viewBox="0 0 24 26" fill="none" xmlns="http://www.w3.org/2000/svg">
<path d="M17.4247 13.0002L1.41125 0.577612C0.798064 1.05714 0.38501 1.80205 0.38501 2.69016L0.38501 23.3104C0.38501 24.1985 0.798064 24.9433 1.41125 25.4222L17.4247 13.0002Z" fill="#9DC6FB"/>
<path d="M22.2717 10.674L18.397 8.4368L15.0008 8.86148L13.8344 13.0001L14.4268 16.9624L18.397 17.5627L22.2717 15.3262C24.0626 14.2923 24.0626 11.7079 22.2717 10.674Z" fill="#FFE07D"/>
<path d="M18.3968 8.43682L4.41404 0.363967C3.39232 -0.225553 2.22542 -0.0586338 1.4115 0.577503L13.8341 13.0001L18.3968 8.43682Z" fill="#DD5790"/>
<path d="M18.3968 17.5629L13.8341 13.0002L1.4115 25.4222C2.22542 26.059 3.39232 26.2259 4.41404 25.6364L18.3968 17.5629Z" fill="#95D6A4"/>
<path d="M3.41244 2.69C3.41244 2.50952 3.42919 2.33534 3.46159 2.16792L1.4114 0.577549C0.798267 1.05677 0.38501 1.80168 0.38501 2.69L0.38501 23.3102C0.38501 24.1979 0.798318 24.9429 1.4114 25.4221L3.46159 23.8318C3.42914 23.6644 3.41244 23.4901 3.41244 23.3102L3.41244 2.69Z" fill="#80B4FB"/>
<path d="M4.59211 0.466156L4.41423 0.363628C3.39251 -0.225435 2.2254 -0.0585675 1.41138 0.57757L3.41449 2.58069C3.44694 1.74051 3.85081 1.03689 4.4383 0.57757H4.4388C4.48852 0.538875 4.53981 0.501245 4.59211 0.466156Z" fill="#DA387D"/>
<path d="M4.43893 25.4221L4.43943 25.4211L4.43837 25.4221C3.85037 24.9628 3.44702 24.2586 3.41457 23.419L1.4115 25.4221C2.22547 26.0588 3.39263 26.2256 4.4143 25.6361L4.59218 25.5335C4.53988 25.4985 4.48859 25.4608 4.43893 25.4221Z" fill="#78C2A4"/>
</svg>
