<svg width="43" height="43" viewBox="0 0 43 43" fill="none" xmlns="http://www.w3.org/2000/svg">
<circle cx="21.5" cy="21.5" r="21.5" fill="#BC2A2A"/>
<path d="M28.8789 14.0078C29.1992 14.2656 29.4492 14.5703 29.6289 14.9219C29.8086 15.2734 29.8984 15.7578 29.8984 16.375C29.8984 16.9844 29.7227 17.8633 29.3711 19.0117C30.2617 19.1445 31.0742 19.332 31.8086 19.5742C32.0352 19.6523 32.1484 19.9102 32.1484 20.3477C32.1484 20.4414 32.1406 20.543 32.125 20.6523C31.0859 20.4727 30.0117 20.3711 28.9023 20.3477C27.8398 23.1523 26.3828 25.6641 24.5312 27.8828C23.2031 29.4609 21.8398 30.5664 20.4414 31.1992C19.7148 31.5273 19.0469 31.6914 18.4375 31.6914C17.8359 31.6914 17.3633 31.5938 17.0195 31.3984C16.6758 31.2109 16.3906 30.9609 16.1641 30.6484C15.7344 30.0312 15.5195 29.3516 15.5195 28.6094C15.5195 27.8594 15.5977 27.2148 15.7539 26.6758C15.9102 26.1367 16.0977 25.6406 16.3164 25.1875C16.7305 24.3359 17.168 23.6992 17.6289 23.2773C17.9102 23.0195 18.3086 23.0508 18.8242 23.3711C18.6211 23.9258 18.5195 24.4258 18.5195 24.8711C18.5195 26.1602 18.8945 26.8047 19.6445 26.8047C20.9648 26.8047 22.5156 25.6836 24.2969 23.4414C24.9922 22.5586 25.6602 21.5547 26.3008 20.4297C24.582 20.5781 23.3203 20.8672 22.5156 21.2969C22.2578 21.4375 22.0742 21.5898 21.9648 21.7539C21.4727 21.3945 21.2266 21.0391 21.2266 20.6875C21.2266 20.3359 21.4258 20.0234 21.8242 19.75C22.7383 19.1172 24.3711 18.8008 26.7227 18.8008H26.9219C26.9922 18.8008 27.0586 18.8047 27.1211 18.8125C27.6836 17.6016 27.9648 16.75 27.9648 16.2578C27.9648 15.7578 27.8242 15.375 27.543 15.1094C27.2695 14.8359 26.9062 14.6094 26.4531 14.4297C25.5781 14.0938 24.4961 13.9258 23.207 13.9258C21.7695 13.9258 20.3438 14.125 18.9297 14.5234C17.2891 14.9844 16.4688 15.5859 16.4688 16.3281C16.4688 16.75 16.6211 17.2383 16.9258 17.793C16.457 18.2852 15.8672 18.5312 15.1562 18.5312C14.8047 18.5312 14.4609 18.25 14.125 17.6875C13.8125 17.1641 13.6562 16.6953 13.6562 16.2812C13.6562 15.8594 13.8086 15.4648 14.1133 15.0977C14.4258 14.7305 14.8359 14.4102 15.3438 14.1367C15.8516 13.8555 16.4336 13.6172 17.0898 13.4219C17.7539 13.2266 18.4414 13.0703 19.1523 12.9531C20.5039 12.7188 21.6523 12.6016 22.5977 12.6016C23.543 12.6016 24.2852 12.6289 24.8242 12.6836C25.3711 12.7305 25.8906 12.8086 26.3828 12.918C26.8828 13.0273 27.3438 13.1719 27.7656 13.3516C28.1953 13.5312 28.5664 13.75 28.8789 14.0078Z" fill="white"/>
</svg>
